<?xml version="1.0" encoding="iso-8859-1"?>
<!-- Generator: Adobe Illustrator 19.0.0, SVG Export Plug-In . SVG Version: 6.00 Build 0)  -->
<svg version="1.1" id="Layer_1" xmlns="http://www.w3.org/2000/svg" xmlns:xlink="http://www.w3.org/1999/xlink" x="0px" y="0px"
	 viewBox="0 0 454.003 454.003" style="enable-background:new 0 0 454.003 454.003;" xml:space="preserve">
<g>
	<polygon style="fill:#666666;" points="269.533,412.091 184.473,412.091 195.153,364.091 198.493,349.091 255.503,349.091 
		258.843,364.091 	"/>
	<path style="fill:#B3B3B3;" d="M454.003,51.611v280.28c0,9.5-7.7,17.2-17.2,17.2h-181.3h-57.01H17.203c-9.5,0-17.2-7.7-17.2-17.2
		V51.611c0-9.5,7.7-17.2,17.2-17.2h419.6C446.303,34.411,454.003,42.111,454.003,51.611z M431.003,326.091V91.061v-33.65h-408v33.65
		v235.03H431.003z"/>
	<path style="fill:#4D4D4D;" d="M255.503,349.091h-57.01l-3.34,15h63.69L255.503,349.091z"/>
	<rect x="23.003" y="57.411" style="opacity:0.23;fill:#F2F2F2;enable-background:new    ;" width="408" height="33.65"/>
	<rect x="23.003" y="91.061" style="fill:#88C5FC;" width="408" height="235.03"/>
	<rect x="145.606" y="404.595" style="fill:#B3B3B3;" width="162.788" height="15"/>
	<path style="opacity:0.23;fill:#F2F2F2;enable-background:new    ;" d="M454.003,51.611v280.28c0,9.5-7.7,17.2-17.2,17.2H194.89
		l163.75-314.68h78.163C446.303,34.411,454.003,42.111,454.003,51.611z"/>
	<path style="opacity:0.23;fill:#F2F2F2;enable-background:new    ;" d="M119.68,34.408l-22.56,43.35l-11.83,22.74l-25.96,49.88
		l-12.39,23.82l-23.94,46l-23,44.2V51.608c0-9.5,7.7-17.2,17.2-17.2H119.68z"/>
	<path style="fill:#F2F2F2;" d="M227,139.253c-49.145,0-91.75,27.89-112.931,68.689C135.25,248.74,177.855,276.63,227,276.63
		s91.75-27.89,112.931-68.688C318.75,167.143,276.145,139.253,227,139.253z"/>
	<path style="fill:#FFFFFF;" d="M227,156.303c-49.145,0-91.75,20.967-112.931,51.639C135.25,238.613,177.855,259.58,227,259.58
		s91.75-20.967,112.931-51.638C318.75,177.27,276.145,156.303,227,156.303z"/>
	<circle style="fill:#71B7EA;" cx="227" cy="207.941" r="48.004"/>
	<circle style="fill:#666666;" cx="227" cy="207.941" r="24.671"/>
	<circle style="opacity:0.23;fill:#F2F2F2;enable-background:new    ;" cx="193.267" cy="196.797" r="11.144"/>
	<circle style="opacity:0.23;fill:#F2F2F2;enable-background:new    ;" cx="245.014" cy="193.047" r="17.894"/>
</g>
<g>
</g>
<g>
</g>
<g>
</g>
<g>
</g>
<g>
</g>
<g>
</g>
<g>
</g>
<g>
</g>
<g>
</g>
<g>
</g>
<g>
</g>
<g>
</g>
<g>
</g>
<g>
</g>
<g>
</g>
</svg>
