<?xml version="1.0" encoding="iso-8859-1"?>
<!-- Generator: Adobe Illustrator 19.0.0, SVG Export Plug-In . SVG Version: 6.00 Build 0)  -->
<svg version="1.1" id="Layer_1" xmlns="http://www.w3.org/2000/svg" xmlns:xlink="http://www.w3.org/1999/xlink" x="0px" y="0px"
	 viewBox="0 0 512 512" style="enable-background:new 0 0 512 512;" xml:space="preserve">
<g>
	<path style="fill:#2D2D2D;" d="M473.648,430.648v-294.4c0-7.04-5.76-12.8-12.8-12.8H51.328c-7.04,0-12.8,5.76-12.8,12.8v294.4
		C38.528,430.648,474.712,430.648,473.648,430.648z"/>
	<rect x="57.736" y="140.52" style="fill:#2D2D2D;" width="396.712" height="290.16"/>
</g>
<rect y="430.648" style="fill:#E0E0E0;" width="512" height="8.536"/>
<polygon style="fill:#999999;" points="486.4,456.248 25.6,456.248 0,439.184 512,439.184 "/>
<g>
	<path style="fill:#FFFFFF;" d="M130.488,327.904l7.96,30.592c1.736,6.712,3.352,12.928,4.472,19.152h0.376
		c1.368-6.104,3.352-12.568,5.344-19.024l9.824-30.72h9.2l9.328,30.088c2.24,7.208,3.984,13.552,5.352,19.648h0.376
		c0.992-6.104,2.608-12.44,4.6-19.528l8.576-30.216h10.824l-19.4,60.184h-9.952l-9.2-28.728c-2.12-6.72-3.856-12.68-5.352-19.776
		h-0.248c-1.488,7.216-3.352,13.432-5.464,19.896l-9.696,28.6h-9.952l-18.152-60.184h11.184V327.904z"/>
	<path style="fill:#FFFFFF;" d="M223.48,327.904l7.96,30.592c1.736,6.712,3.352,12.928,4.472,19.152h0.376
		c1.368-6.104,3.352-12.568,5.344-19.024l9.824-30.72h9.2l9.328,30.088c2.24,7.208,3.984,13.552,5.352,19.648h0.376
		c0.992-6.104,2.608-12.44,4.6-19.528l8.576-30.216h10.824l-19.4,60.184h-9.952l-9.2-28.728c-2.12-6.72-3.856-12.68-5.352-19.776
		h-0.248c-1.488,7.216-3.352,13.432-5.464,19.896l-9.696,28.6h-9.952l-18.152-60.184h11.184V327.904z"/>
	<path style="fill:#FFFFFF;" d="M316.472,327.904l7.96,30.592c1.736,6.712,3.352,12.928,4.472,19.152h0.376
		c1.368-6.104,3.352-12.568,5.344-19.024l9.824-30.72h9.2l9.328,30.088c2.24,7.208,3.984,13.552,5.352,19.648h0.376
		c0.992-6.104,2.608-12.44,4.6-19.528l8.576-30.216h10.824l-19.4,60.184h-9.952l-9.2-28.728c-2.12-6.72-3.856-12.68-5.352-19.776
		h-0.248c-1.488,7.216-3.352,13.432-5.464,19.896l-9.704,28.6h-9.952l-18.152-60.184h11.192V327.904z"/>
</g>
<path style="fill:#DB2B42;" d="M256,273.88l-9.232-12.192c-6.792-8.888-66.264-88.272-66.264-127.824
	c0-47.448,29.616-78.112,75.496-78.112s75.496,30.664,75.496,78.112c0,39.488-59.472,118.88-66.208,127.824L256,273.88z"/>
<circle style="fill:#FFFFFF;" cx="255.944" cy="134.384" r="24.448"/>
<g>
</g>
<g>
</g>
<g>
</g>
<g>
</g>
<g>
</g>
<g>
</g>
<g>
</g>
<g>
</g>
<g>
</g>
<g>
</g>
<g>
</g>
<g>
</g>
<g>
</g>
<g>
</g>
<g>
</g>
</svg>
